<?xml version="1.0" encoding="UTF-8" standalone="no"?>
<!DOCTYPE svg PUBLIC "-//W3C//DTD SVG 1.1//EN"
 "http://www.w3.org/Graphics/SVG/1.1/DTD/svg11.dtd">
<!-- Generated by graphviz version 2.26.3 (20100126.1600)
 -->
<!-- Title: G Pages: 1 -->
<svg width="94pt" height="152pt"
 viewBox="0.00 0.00 94.00 152.00" xmlns="http://www.w3.org/2000/svg" xmlns:xlink="http://www.w3.org/1999/xlink">
<g id="graph1" class="graph" transform="scale(1 1) rotate(0) translate(4 148)">
<title>G</title>
<polygon fill="white" stroke="white" points="-4,5 -4,-148 91,-148 91,5 -4,5"/>
<g id="graph2" class="cluster"><title>cluster_global</title>
<polyline fill="none" stroke="gray" points="20,-8 66,-8 "/>
<path fill="none" stroke="gray" d="M66,-8C72,-8 78,-14 78,-20"/>
<polyline fill="none" stroke="gray" points="78,-20 78,-124 "/>
<path fill="none" stroke="gray" d="M78,-124C78,-130 72,-136 66,-136"/>
<polyline fill="none" stroke="gray" points="66,-136 20,-136 "/>
<path fill="none" stroke="gray" d="M20,-136C14,-136 8,-130 8,-124"/>
<polyline fill="none" stroke="gray" points="8,-124 8,-20 "/>
<path fill="none" stroke="gray" d="M8,-20C8,-14 14,-8 20,-8"/>
<text text-anchor="middle" x="43" y="-122.1" font-family="Times Roman,serif" font-size="11.00" fill="gray">global</text>
</g>
<!-- \\SSH2 -->
<g id="node2" class="node"><title>\\SSH2</title>
<a xlink:href="lib.SSH2.html" xlink:title="SSH2" target="_parent">
<polygon fill="none" stroke="black" points="70,-106 16,-106 16,-70 70,-70 70,-106"/>
<text text-anchor="middle" x="43" y="-85.1" font-family="Courier,monospace" font-size="11.00">SSH2</text>
</a>
</g>
<!-- \\Shell -->
<g id="node3" class="node"><title>\\Shell</title>
<a xlink:href="lib.common.html" xlink:title="Shell" target="_parent">
<polygon fill="none" stroke="black" points="70,-52 16,-52 16,-16 70,-16 70,-52"/>
<text text-anchor="middle" x="43" y="-31.1" font-family="Courier,monospace" font-size="11.00">Shell</text>
</a>
</g>
</g>
</svg>
